inDegrees=no
num_controls=7
num_derivatives=13
num_iterations=141
num_multipliers=7
num_parameters=0
num_slacks=7
num_states=26
objective=0.543146
objective_accelerations=0.065901
objective_balance=0.003426
objective_effort=0.048160
objective_height=0.416515
objective_ligament=0.009144
solver_duration=1518.807888
status=Solve_Succeeded
success=true
DataType=double
version=3
OpenSimVersion=4.5
endheader
time	/jointset/ground_pelvis/pelvis_tilt/value	/jointset/ground_pelvis/pelvis_tx/value	/jointset/ground_pelvis/pelvis_ty/value	/jointset/hip_r/hip_flexion_r/value	/jointset/hip_r/hip_adduction_r/value	/jointset/hip_r/hip_rotation_r/value	/jointset/back/lumbar_extension/value	/jointset/patellofemoral_r/patellar_flexion_r/value	/jointset/knee_r/knee_flexion_r/value	/jointset/knee_r/knee_adduction_r/value	/jointset/knee_r/knee_rotation_r/value	/jointset/ankle_r/ankle_angle_r/value	/jointset/subtalar_r/subtalar_angle_r/value	/jointset/ground_pelvis/pelvis_tilt/speed	/jointset/ground_pelvis/pelvis_tx/speed	/jointset/ground_pelvis/pelvis_ty/speed	/jointset/hip_r/hip_flexion_r/speed	/jointset/hip_r/hip_adduction_r/speed	/jointset/hip_r/hip_rotation_r/speed	/jointset/back/lumbar_extension/speed	/jointset/patellofemoral_r/patellar_flexion_r/speed	/jointset/knee_r/knee_flexion_r/speed	/jointset/knee_r/knee_adduction_r/speed	/jointset/knee_r/knee_rotation_r/speed	/jointset/ankle_r/ankle_angle_r/speed	/jointset/subtalar_r/subtalar_angle_r/speed	/forceset/tau_hip_flexion_r	/forceset/tau_hip_adduction_r	/forceset/tau_hip_rotation_r	/forceset/tau_knee_flexion_r	/forceset/tau_ankle_angle_r	/forceset/tau_subtalar_angle_r	/forceset/tau_lumbar_extension	lambda_cid13_p0	lambda_cid14_p0	lambda_cid14_p1	lambda_cid14_p2	lambda_cid14_p3	lambda_cid14_p4	lambda_cid14_p5	/jointset/ground_pelvis/pelvis_tilt/accel	/jointset/ground_pelvis/pelvis_tx/accel	/jointset/ground_pelvis/pelvis_ty/accel	/jointset/hip_r/hip_flexion_r/accel	/jointset/hip_r/hip_adduction_r/accel	/jointset/hip_r/hip_rotation_r/accel	/jointset/back/lumbar_extension/accel	/jointset/patellofemoral_r/patellar_flexion_r/accel	/jointset/knee_r/knee_flexion_r/accel	/jointset/knee_r/knee_adduction_r/accel	/jointset/knee_r/knee_rotation_r/accel	/jointset/ankle_r/ankle_angle_r/accel	/jointset/subtalar_r/subtalar_angle_r/accel	gamma_cid13_p0	gamma_cid14_p0	gamma_cid14_p1	gamma_cid14_p2	gamma_cid14_p3	gamma_cid14_p4	gamma_cid14_p5
1	-0.3446857234139509	-0.02397328286872337	0.5952535281089519	1.674093450920666	-0.2304213236509956	-0.1003175128146092	-0.4363220456998042	1.55457640742587	1.554576407425899	-0.1745320810271738	0.1692443295946349	0.4363306358169806	0.114575791307143	-0.003511764330057433	0.002002852176993919	0.0170755234635048	-0.04134894137507801	0.002432197328919543	-0.008633294731624767	-0.0001588140285622887	-0.04970735587576162	-0.04970735587576155	0.001249556086519793	0.0003378210256436077	-0.005383694914548119	0.002171460184905799	-0.3214246925600495	0.01608385363636434	-0.003896170127472626	-0.5381927797839032	0.0256003360726029	0.008808038827354748	0.3266351449916272	-0.04246865507767734	-42.77831899983002	-6.563147585407402	4.816874985833328	19.84321386712348	-828.1725223639684	59.7111890228354	1.180893101145284	-0.008096153520264748	2.210273148369025	-6.354961270350497	0.2210918215153884	-0.1323420700837745	-0.01703062057302734	-6.122319918559876	-6.122319918559699	1.23192706624519	0.1692918367950683	-1.101155804197901	-0.06663831903533825	8.782086375865897e-09	1.687778918040124e-08	4.67077775318258e-08	6.755056708743221e-08	-7.896976125289838e-09	-1.097968339886701e-08	1.224661171631074e-07
1.01	-0.3446622840066488	-0.02395368283984363	0.5955346348028605	1.673363055182625	-0.2303859843640981	-0.1004066067821408	-0.4363239039583541	1.553773600553114	1.55377360055311	-0.1744541014681366	0.1692557678814902	0.4362215753230126	0.1145939524154549	0.008205072814863872	0.001917436130788165	0.03913975592727158	-0.1047166464999788	0.00463619838347305	-0.009186308926361793	-0.0002160455922764751	-0.1108503137471673	-0.110850313747168	0.01434526994354221	0.001945834556132149	-0.01644542228156375	0.001454430503229907	-0.3213221776256479	0.01615508210201029	-0.003814792053860525	-0.5377981424877222	0.02544856797384606	0.008789923111371689	0.3265383058226963	-0.04248502524905404	-42.8131223846833	-6.577003774934802	4.818963976488364	19.88323815502297	-827.9003664882257	59.66050971377995	1.167899714312756	-0.008726088481431502	2.20358481355842	-6.325634835606261	0.2201548385823131	-0.0168897755736326	-0.0005506109229415444	-6.109731639310548	-6.109731639310739	1.348224233683385	0.1559968387186145	-1.111232437719662	-0.07515125335899717	1.819055027183741e-08	3.688684196932884e-08	1.040543177588616e-07	1.489065657878184e-07	-2.056273369574192e-08	-2.274709059074927e-08	2.691461951778053e-07
1.02	-0.3445215120892702	-0.02393492932308801	0.5960362011250422	1.671999390452924	-0.2303285849484229	-0.1005012526279059	-0.436326430769841	1.552359474518069	1.55235947451804	-0.1742451986328825	0.1692831744491552	0.4360013873084135	0.1146047600348251	0.01995473768567701	0.001833549752168867	0.06116744911816181	-0.1680027397067324	0.0068442230843081	-0.009743670377299403	-0.0002925246220794255	-0.1719711883337588	-0.171971188333761	0.02743421133067043	0.003531477188335353	-0.02760919903923027	0.0007007623965424814	-0.3212196626912475	0.01622631056764903	-0.003733413980163084	-0.5374035051915373	0.02529679987508651	0.008771807395373379	0.3264414666537629	-0.04251086355373269	-42.85539964669699	-6.58642358887259	4.813783123853287	19.94526631697839	-827.7395612565011	59.65363178768324	1.187458646323634	-0.007790220002956428	2.202965293793716	-6.338638886721059	0.2218965507716944	-0.1332115213239017	-0.02088011379062611	-6.117903261597009	-6.11790326159701	1.23057257226634	0.1648176571380006	-1.121565682328043	-0.07396600403763402	2.708904859464471e-08	5.494935544366403e-08	1.583851091438317e-07	2.267954301594218e-07	-3.04369066406754e-08	-3.36898706226359e-08	4.068286284907054e-07
1.03	-0.3442630666106489	-0.02391692349123304	0.5967577802875885	1.670003402299835	-0.2302491200397732	-0.1006015955201261	-0.4363295046089865	1.550334407494311	1.550334407494316	-0.173905531742613	0.1693263082882089	0.4356690501869651	0.1146077885453081	0.03174073799190885	0.001776242049397069	0.08313428975606431	-0.2311686149688931	0.009045847381629861	-0.01032673167468674	-0.0002938616635111847	-0.2330228845365462	-0.2330228845365445	0.04049821707280266	0.005088765225603658	-0.03887523209163572	-0.0001073794703612844	-0.3210699033293747	0.01627993185152595	-0.003544879321353754	-0.5366851759269756	0.02527071417781852	0.008724363194857521	0.3263777730603438	-0.04254112895554257	-42.83799895469181	-6.596274014987604	4.806549534076987	19.87669110325172	-827.3111283171176	59.61286827716184	1.175141045106859	-0.003415346977493737	2.191420412424312	-6.301607718406235	0.2188995950987472	-0.02110092989082495	0.01449673229772412	-6.095910267777449	-6.095910267776833	1.344159434747611	0.1502894224883492	-1.131670513534933	-0.08601705663030086	3.598234318711361e-08	7.299200627193195e-08	2.126851275814337e-07	3.046489156093028e-07	-4.028259402820562e-08	-4.462423609166543e-08	5.444192491025668e-07
1.04	-0.343886567064499	-0.02389923359671836	0.597698603249241	1.667376546219639	-0.2301477180429718	-0.1007078185245128	-0.4363317403721446	1.547699402014893	1.547699402014935	-0.173435255823014	0.169384836016727	0.4352235430556237	0.1146023798813995	0.04356555119149922	0.001770362284108335	0.1050162089394028	-0.2941763251287586	0.01123164071440565	-0.01091969280986227	-0.0001249094402518823	-0.293958879465648	-0.2939588794656418	0.05355601719737339	0.006610255081556069	-0.05024320101756684	-0.0009866724818073122	-0.320920143967482	0.01633355313540091	-0.00335634466247687	-0.5359668466624109	0.02524462848054642	0.008676918994335189	0.3263140794669434	-0.04258089427556819	-42.82822150830446	-6.601757268387609	4.792106287314571	19.83072087183866	-826.9962650460122	59.61542966494903	1.19522122499532	0.002495367493671008	2.185981002880931	-6.307005866262008	0.218730357862497	-0.1351914888815457	0.0131777391480354	-6.094763006859891	-6.094763006859754	1.229331448754036	0.157658020874824	-1.141952857033147	-0.08819623294607962	4.375902954850067e-08	8.774196386644712e-08	2.610134132880658e-07	3.739401974323896e-07	-4.654152394927154e-08	-5.452873706899579e-08	6.6311874722966e-07
1.05	-0.3433919946661763	-0.02388120416123413	0.5988577355407535	1.664120777437501	-0.2300245759678428	-0.10082022974917	-0.4363302383584524	1.544455710684073	1.544455710684089	-0.1728346177210538	0.1694583883503022	0.4346639285555554	0.1145877939188408	0.05531707384053143	0.001858298120263459	0.1267876528317324	-0.3569131517695526	0.01338968316808644	-0.01156860789985559	0.0005749669662519937	-0.3547505944820164	-0.3547505944820078	0.06656970146714465	0.008092546222214034	-0.06168857727493447	-0.001946592449510444	-0.3211943436327359	0.01637765162403786	-0.003065745277878304	-0.5348852941208582	0.02516099502195335	0.008621742469931529	0.326761942309379	-0.04262149098528178	-42.83285939924469	-6.609030491524145	4.773274559993625	19.60821383370535	-826.7620966010758	59.58686852921034	1.160358910785564	0.01534808808135802	2.16932362277822	-6.247360711967314	0.2133373903184709	-0.03061244961103658	0.1208408074334075	-6.067067294914311	-6.067067294914032	1.337084280487718	0.1424863894996013	-1.147158639585421	-0.1022001834554166	5.150082190266642e-08	1.023890247974075e-07	3.091550823468551e-07	4.429639103921391e-07	-5.268836769951049e-08	-6.440105478096056e-08	7.812278977791044e-07
